<svg aria-hidden="true" style="position: absolute; width: 0; height: 0; overflow: hidden;" version="1.1" xmlns="http://www.w3.org/2000/svg" xmlns:xlink="http://www.w3.org/1999/xlink">
<defs>
<symbol id="icon-facebook" viewBox="0 0 32 32">
<path d="M30.922 15.461c0-8.539-6.922-15.461-15.461-15.461s-15.461 6.922-15.461 15.461c0 7.717 5.654 14.113 13.045 15.273v-10.804h-3.926v-4.469h3.926v-3.406c0-3.875 2.308-6.015 5.84-6.015 1.691 0 3.461 0.302 3.461 0.302v3.805h-1.95c-1.921 0-2.52 1.192-2.52 2.416v2.899h4.288l-0.685 4.469h-3.603v10.804c7.391-1.16 13.045-7.556 13.045-15.273z"></path>
</symbol>
<symbol id="icon-envelope" viewBox="0 0 32 32">
<path d="M31.467 6.72c0-1.701-1.392-3.093-3.093-3.093h-24.747c-1.701 0-3.093 1.392-3.093 3.093v18.56c0 1.701 1.392 3.093 3.093 3.093h24.747c1.701 0 3.093-1.392 3.093-3.093v-18.56zM28.373 6.72l-12.373 7.733-12.373-7.733h24.747zM28.373 25.28h-24.747v-15.467l12.373 7.733 12.373-7.733v15.467z"></path>
</symbol>
<symbol id="icon-instagram" viewBox="0 0 32 32">
<path d="M16 2.881c4.275 0 4.781 0.019 6.462 0.094 1.563 0.069 2.406 0.331 2.969 0.55 0.744 0.288 1.281 0.638 1.837 1.194 0.563 0.563 0.906 1.094 1.194 1.838 0.219 0.563 0.481 1.412 0.55 2.969 0.075 1.688 0.094 2.194 0.094 6.462 0 4.275-0.019 4.781-0.094 6.462-0.069 1.563-0.331 2.406-0.55 2.969-0.287 0.744-0.637 1.281-1.194 1.837-0.563 0.563-1.094 0.906-1.837 1.194-0.563 0.219-1.412 0.481-2.969 0.55-1.688 0.075-2.194 0.094-6.462 0.094-4.275 0-4.781-0.019-6.463-0.094-1.563-0.069-2.406-0.331-2.969-0.55-0.744-0.287-1.281-0.637-1.838-1.194-0.563-0.563-0.906-1.094-1.194-1.837-0.219-0.563-0.481-1.412-0.55-2.969-0.075-1.688-0.094-2.194-0.094-6.462 0-4.275 0.019-4.781 0.094-6.462 0.069-1.563 0.331-2.406 0.55-2.969 0.288-0.744 0.638-1.281 1.194-1.838 0.563-0.563 1.094-0.906 1.838-1.194 0.563-0.219 1.412-0.481 2.969-0.55 1.681-0.075 2.188-0.094 6.463-0.094zM16 0c-4.344 0-4.887 0.019-6.594 0.094-1.7 0.075-2.869 0.35-3.881 0.744-1.056 0.412-1.95 0.956-2.837 1.85-0.894 0.888-1.438 1.781-1.85 2.831-0.394 1.019-0.669 2.181-0.744 3.881-0.075 1.713-0.094 2.256-0.094 6.6s0.019 4.887 0.094 6.594c0.075 1.7 0.35 2.869 0.744 3.881 0.413 1.056 0.956 1.95 1.85 2.838 0.887 0.887 1.781 1.438 2.831 1.844 1.019 0.394 2.181 0.669 3.881 0.744 1.706 0.075 2.25 0.094 6.594 0.094s4.888-0.019 6.594-0.094c1.7-0.075 2.869-0.35 3.881-0.744 1.050-0.406 1.944-0.956 2.831-1.844s1.438-1.781 1.844-2.831c0.394-1.019 0.669-2.181 0.744-3.881 0.075-1.706 0.094-2.25 0.094-6.594s-0.019-4.887-0.094-6.594c-0.075-1.7-0.35-2.869-0.744-3.881-0.394-1.063-0.938-1.956-1.831-2.844-0.887-0.887-1.781-1.438-2.831-1.844-1.019-0.394-2.181-0.669-3.881-0.744-1.713-0.081-2.256-0.1-6.6-0.1z"></path>
<path d="M16 7.781c-4.537 0-8.219 3.681-8.219 8.219s3.681 8.219 8.219 8.219c4.537 0 8.219-3.681 8.219-8.219s-3.681-8.219-8.219-8.219zM16 21.331c-2.944 0-5.331-2.387-5.331-5.331s2.387-5.331 5.331-5.331c2.944 0 5.331 2.387 5.331 5.331s-2.387 5.331-5.331 5.331z"></path>
<path d="M26.462 7.456c0 1.063-0.862 1.919-1.919 1.919-1.063 0-1.919-0.863-1.919-1.919 0-1.063 0.862-1.919 1.919-1.919s1.919 0.862 1.919 1.919z"></path>
</symbol>
</defs>
</svg>
